{
  "accessors": [
    {
      "bufferView": 2,
      "componentType": 5126,
      "count": 24,
      "max": [
        0.11718609929084778,
        0.5527604222297668,
        1.507472038269043
      ],
      "min": [
        -0.11718609929084778,
        -0.5527604222297668,
        1.4658759832382202
      ],
      "type": "VEC3"
    },
    {
      "bufferView": 2,
      "byteOffset": 288,
      "componentType": 5126,
      "count": 24,
      "type": "VEC3"
    },
    {
      "bufferView": 1,
      "componentType": 5126,
      "count": 24,
      "type": "VEC2"
    },
    {
      "bufferView": 0,
      "componentType": 5125,
      "count": 36,
      "type": "SCALAR"
    },
    {
      "bufferView": 2,
      "byteOffset": 576,
      "componentType": 5126,
      "count": 323,
      "max": [
        0.25,
        0.25,
        1.1389960050582886
      ],
      "min": [
        -0.25,
        -0.25,
        1.0489959716796875
      ],
      "type": "VEC3"
    },
    {
      "bufferView": 2,
      "byteOffset": 4452,
      "componentType": 5126,
      "count": 323,
      "type": "VEC3"
    },
    {
      "bufferView": 1,
      "byteOffset": 192,
      "componentType": 5126,
      "count": 323,
      "type": "VEC2"
    },
    {
      "bufferView": 0,
      "byteOffset": 144,
      "componentType": 5125,
      "count": 1584,
      "type": "SCALAR"
    },
    {
      "bufferView": 2,
      "byteOffset": 8328,
      "componentType": 5126,
      "count": 419,
      "max": [
        0.5,
        0.5,
        1.8080910444259644
      ],
      "min": [
        -0.5,
        -0.5,
        1.1173110008239746
      ],
      "type": "VEC3"
    },
    {
      "bufferView": 2,
      "byteOffset": 13356,
      "componentType": 5126,
      "count": 419,
      "type": "VEC3"
    },
    {
      "bufferView": 1,
      "byteOffset": 2776,
      "componentType": 5126,
      "count": 419,
      "type": "VEC2"
    },
    {
      "bufferView": 0,
      "byteOffset": 6480,
      "componentType": 5125,
      "count": 1584,
      "type": "SCALAR"
    },
    {
      "bufferView": 2,
      "byteOffset": 18384,
      "componentType": 5126,
      "count": 323,
      "max": [
        0.800000011920929,
        0.949999988079071,
        1.5360209941864014
      ],
      "min": [
        -0.800000011920929,
        -0.949999988079071,
        1.0860209465026855
      ],
      "type": "VEC3"
    },
    {
      "bufferView": 2,
      "byteOffset": 22260,
      "componentType": 5126,
      "count": 323,
      "type": "VEC3"
    },
    {
      "bufferView": 1,
      "byteOffset": 6128,
      "componentType": 5126,
      "count": 323,
      "type": "VEC2"
    },
    {
      "bufferView": 0,
      "byteOffset": 12816,
      "componentType": 5125,
      "count": 1584,
      "type": "SCALAR"
    },
    {
      "bufferView": 2,
      "byteOffset": 26136,
      "componentType": 5126,
      "count": 2379,
      "max": [
        0.8100000023841858,
        0.9599999785423279,
        1.5930789709091187
      ],
      "min": [
        -0.8100000023841858,
        -0.9599999785423279,
        1.0724400281906128
      ],
      "type": "VEC3"
    },
    {
      "bufferView": 2,
      "byteOffset": 54684,
      "componentType": 5126,
      "count": 2379,
      "type": "VEC3"
    },
    {
      "bufferView": 1,
      "byteOffset": 8712,
      "componentType": 5126,
      "count": 2379,
      "type": "VEC2"
    },
    {
      "bufferView": 0,
      "byteOffset": 19152,
      "componentType": 5125,
      "count": 11088,
      "type": "SCALAR"
    },
    {
      "bufferView": 2,
      "byteOffset": 83232,
      "componentType": 5126,
      "count": 646,
      "max": [
        0.8044335842132568,
        0.0267928596585989,
        1.3401130437850952
      ],
      "min": [
        -0.803019106388092,
        -0.0267928596585989,
        1.3040030002593994
      ],
      "type": "VEC3"
    },
    {
      "bufferView": 2,
      "byteOffset": 90984,
      "componentType": 5126,
      "count": 646,
      "type": "VEC3"
    },
    {
      "bufferView": 1,
      "byteOffset": 27744,
      "componentType": 5126,
      "count": 646,
      "type": "VEC2"
    },
    {
      "bufferView": 0,
      "byteOffset": 63504,
      "componentType": 5125,
      "count": 3168,
      "type": "SCALAR"
    }
  ],
  "asset": {
    "generator": "fab-model-conversion",
    "version": "2.0"
  },
  "bufferViews": [
    {
      "buffer": 0,
      "byteLength": 76176,
      "target": 34963
    },
    {
      "buffer": 0,
      "byteLength": 32912,
      "byteOffset": 76176,
      "byteStride": 8,
      "target": 34962
    },
    {
      "buffer": 0,
      "byteLength": 98736,
      "byteOffset": 109088,
      "byteStride": 12,
      "target": 34962
    }
  ],
  "buffers": [
    {
      "byteLength": 207824,
      "uri": "scene.bin"
    }
  ],
  "extensionsUsed": [
    "KHR_materials_specular"
  ],
  "materials": [
    {
      "doubleSided": true,
      "name": "Material",
      "pbrMetallicRoughness": {
        "roughnessFactor": 0.0
      }
    },
    {
      "doubleSided": true,
      "name": "Material_1",
      "pbrMetallicRoughness": {
        "baseColorFactor": [
          0.41591835841330743,
          0.00812285716994169,
          0.004297828266065976,
          1.0
        ],
        "roughnessFactor": 0.3666770382508546
      }
    },
    {
      "doubleSided": true,
      "name": "Material_2",
      "pbrMetallicRoughness": {
        "roughnessFactor": 0.0
      }
    },
    {
      "doubleSided": true,
      "extensions": {
        "KHR_materials_specular": {
          "specularFactor": 1
        }
      },
      "name": "Material_3",
      "pbrMetallicRoughness": {
        "baseColorFactor": [
          0.5469729369111547,
          0.35357851117270866,
          0.02523830953872092,
          1.0
        ],
        "metallicFactor": 0.0
      }
    },
    {
      "doubleSided": true,
      "extensions": {
        "KHR_materials_specular": {
          "specularFactor": 1
        }
      },
      "name": "Material_4",
      "pbrMetallicRoughness": {
        "baseColorFactor": [
          0.0925066476767465,
          0.08190822592343454,
          0.08190822592343454,
          1.0
        ],
        "roughnessFactor": 0.0
      }
    },
    {
      "doubleSided": true,
      "name": "Material_5",
      "pbrMetallicRoughness": {
        "baseColorFactor": [
          0.03620382275908404,
          0.07815172394660573,
          0.050334870317061825,
          1.0
        ],
        "roughnessFactor": 0.3583921822726031
      }
    }
  ],
  "meshes": [
    {
      "name": "Object_0",
      "primitives": [
        {
          "attributes": {
            "NORMAL": 1,
            "POSITION": 0,
            "TEXCOORD_0": 2
          },
          "indices": 3,
          "material": 2,
          "mode": 4
        }
      ]
    },
    {
      "name": "Object_1",
      "primitives": [
        {
          "attributes": {
            "NORMAL": 5,
            "POSITION": 4,
            "TEXCOORD_0": 6
          },
          "indices": 7,
          "material": 3,
          "mode": 4
        }
      ]
    },
    {
      "name": "Object_2",
      "primitives": [
        {
          "attributes": {
            "NORMAL": 9,
            "POSITION": 8,
            "TEXCOORD_0": 10
          },
          "indices": 11,
          "material": 4,
          "mode": 4
        }
      ]
    },
    {
      "name": "Object_3",
      "primitives": [
        {
          "attributes": {
            "NORMAL": 13,
            "POSITION": 12,
            "TEXCOORD_0": 14
          },
          "indices": 15,
          "material": 5,
          "mode": 4
        }
      ]
    },
    {
      "name": "Object_4",
      "primitives": [
        {
          "attributes": {
            "NORMAL": 17,
            "POSITION": 16,
            "TEXCOORD_0": 18
          },
          "indices": 19,
          "material": 1,
          "mode": 4
        }
      ]
    },
    {
      "name": "Object_5",
      "primitives": [
        {
          "attributes": {
            "NORMAL": 21,
            "POSITION": 20,
            "TEXCOORD_0": 22
          },
          "indices": 23,
          "material": 0,
          "mode": 4
        }
      ]
    }
  ],
  "nodes": [
    {
      "children": [
        1
      ],
      "matrix": [
        1.0,
        0.0,
        0.0,
        0.0,
        0.0,
        2.220446049250313e-16,
        -1.0,
        0.0,
        0.0,
        1.0,
        2.220446049250313e-16,
        0.0,
        0.0,
        0.0,
        0.0,
        1.0
      ],
      "name": "Sketchfab_model"
    },
    {
      "children": [
        2,
        3,
        4,
        5,
        6,
        7
      ],
      "name": "UFO.obj.cleaner.materialmerger.gles"
    },
    {
      "mesh": 0,
      "name": "Object_2"
    },
    {
      "mesh": 1,
      "name": "Object_3"
    },
    {
      "mesh": 2,
      "name": "Object_4"
    },
    {
      "mesh": 3,
      "name": "Object_5"
    },
    {
      "mesh": 4,
      "name": "Object_6"
    },
    {
      "mesh": 5,
      "name": "Object_7"
    }
  ],
  "scene": 0,
  "scenes": [
    {
      "name": "Sketchfab_Scene",
      "nodes": [
        0
      ]
    }
  ]
}
